<?xml version="1.0" encoding="UTF-8"?><svg id="Layer_1" xmlns="http://www.w3.org/2000/svg" viewBox="0 0 100 100"><defs><style>.cls-1{fill:#fff;}</style></defs><path class="cls-1" d="m44.35,82.05c-6.66-.56-13.88,1.29-20.04-3.89,4.17-3.18,9.05-5.72,11.3-11.04,1.32-3.12,2.98-5.75-2.57-5.21-.84.08-1.71.03-2.2-.81-.73-1.26.49-1.75,1.09-2.39,2.28-2.42,3.98-5.18,5.32-8.21.32-.72,1.16-1.39.39-2.16-.63-.62-1.55-.54-2.32-.12-1.38.75-3.08,1.41-3.98-.08-.93-1.55.39-2.92,1.38-4.37,5.6-8.25,11.03-16.6,13.48-26.5.62-2.49,1.63-5.34,5.07-5.15,2.97.16,4.79,1.99,5.18,4.92.99,7.49,4.63,13.79,8.42,20.12,1.4,2.34,3.83,5.58-1.42,7.06-1.42.4-1.66,1.61-.8,3.21,1.56,2.9,3.25,5.65,5.34,8.21,3.05,3.73,2.67,5.29-1.79,7.27-1.93.86-.8,1.57-.39,2.61,1.85,4.67,5.42,7.86,9.41,10.5,2.86,1.89,2.42,3.12.14,5.03-3.95,3.31-8.13,1.34-12.26.84-.49-.06-1-.06-1.48-.17-9.75-2.26-10.76-1.66-8.45,7.72,1.11,4.5-.33,5.15-3.7,4.35-2.21-.53-4.54,2.88-6.16-.02-1.03-1.85.15-4.14.68-6.24.43-1.69.26-3.54.37-5.51Zm1.73,9.36c3.37.18,5.12-.87,4.03-4.54-.37-1.24-.08-2.71-.56-3.88-1.39-3.4.19-3.8,3.14-3.99,5.02-.33,9.85,1.2,14.8,1.05,1.73-.05,4.17.93,4.93-1.19.6-1.68-1.67-2.62-2.77-3.75-6.15-6.3-7.9-14.72-11.48-22.25,3.81,1.67,5.43,5.76,9.89,7.41-4.37-6.73-9.16-12.42-10.81-19.82,2.43-.92,4.31,1.9,6.48-.04-3.63-7.48-7.6-14.83-10.37-22.73-.39-1.1-.83-2.43-2.07-2.55-1.76-.17-1.79,1.71-2.29,2.75-3.15,6.47-6.22,12.98-9.18,19.54-1.1,2.44-3.68,4.17-3.67,7.19,3.07-.04,4.1-3.15,6.82-4.18-.92,7.03-3.97,12.77-7.23,18.67,1.96-1.16,3.92-2.33,6.26-3.72-.93,9.34-6.28,15.73-11.99,22.33,4.59,1.58,8.7,3.46,13.43,1.67,3.12-1.18,4.16.74,3.36,3.25-.94,2.96-.91,5.82-.71,8.78Z"/></svg>