<?xml version="1.0" encoding="UTF-8"?><svg id="Layer_1" xmlns="http://www.w3.org/2000/svg" viewBox="0 0 100 100"><polygon points="50.95 7.55 53.17 12.04 58.12 12.76 54.54 16.25 55.38 21.19 50.95 18.86 46.52 21.19 47.36 16.25 43.78 12.76 48.73 12.04 50.95 7.55"/><path d="m44.11,82.96c-2.27,0-4.62-.15-7.35-.58-3.25-.51-5.75-1.29-7.39-3.4-1.71-2.2-1.22-5.03-.44-7.75,1.72-6,3.92-12.37,6.73-19.49,1.04-2.64,2.22-5.28,3.35-7.83,1.4-3.15,2.85-6.41,4.06-9.69.04-.11,1.01-2.69,3.4-6.39,2.29-3.53,3.36-4.04,4.04-4.09,2.3-.19,4.23,3.34,5.77,6.79,7.81,17.48,9.22,22.38,13.39,36.9l.85,2.97c1.13,3.92,2.01,6.98.33,9.36-1.39,1.98-3.46,2.06-9,2.27-2.01.08-4.5.17-7.62.38-.97.06-1.9.13-2.79.2-2.61.19-4.93.36-7.34.36Zm6.56-58.23s-.06,0-.08,0c-.29.02-1.19.41-3.27,3.63-2.33,3.6-3.29,6.17-3.3,6.19-1.22,3.31-2.68,6.59-4.09,9.75-1.13,2.54-2.3,5.17-3.34,7.79-2.8,7.09-4.99,13.43-6.7,19.4h0c-.66,2.31-1.24,4.93.27,6.87,1.25,1.61,3.15,2.46,6.76,3.03,5.52.87,9.46.58,14.46.21.89-.07,1.82-.13,2.79-.2,3.13-.21,5.63-.3,7.64-.38,5.33-.2,7.12-.27,8.22-1.85,1.4-1.99.62-4.7-.46-8.45l-.87-3.03c-4.15-14.47-5.55-19.35-13.34-36.77-.76-1.71-2.77-6.21-4.7-6.21Z"/><rect x="46.25" y="81.92" width="8.54" height="10.53"/></svg>