<?xml version="1.0" encoding="UTF-8"?><svg id="Layer_1" xmlns="http://www.w3.org/2000/svg" viewBox="0 0 100 100"><defs><style>.cls-1{fill:#fff;}</style></defs><path class="cls-1" d="m73.73,76.04l-.47-2.89-18.88,3.04-.98-.32.57-2.28,14.95-1.53-.3-2.91-13.9,1.42,1.03-4.14,7.3.43.34.23.13-.2,6.27.37.17-2.92-5.94-.35-6.57-4.42.19-.78,9.76-1-.3-2.91-3.09.32-4.42-8.82,4-3.58-1.95-2.18-3.41,3.05-3.88-7.74,3.94-5.25-2.34-1.76-3.07,4.08-2.46-4.9,2.4-4.15-2.53-1.46-1.54,2.66-2.46,1.23.81,1.62-2.48,4.3-1.14-2.35-2.63,1.28,2.01,4.13-1.76,3.06,2.53,1.46.77-1.34,1.7,3.5-4.92,6.56-4.74-3.19-1.63,2.43,4.62,3.11-4.15,5.53,1.94,1.46-4.37.45.3,2.91,6.11-.62-1.94,1.74-6.37-.38-.17,2.92,3.47.21-1.72,1.54,1.95,2.18,3.88-3.47,14.43.86-1.15,4.63-10.38,1.06-13.11-4.23-.9,2.78,6.78,2.19-4.28.44.3,2.91,10.9-1.11,7.1,2.29-21.77,3.51.47,2.89,22.64-3.65-.1.41,2.84.71.4-1.62,1.65-.27,18.39,5.94.9-2.78-12.94-4.18,13.22-2.13Zm-15.45-12.38l-1.81-.11.24-.95,1.58,1.06Zm.12-7.88l.88-3.52,1.64,3.26-2.51.26Zm.43-4.41l-2.21-.55-1.31,5.27-2.62.27-2.42-1.63,1.39-1.25,1.19,2.45,2.63-1.28-1.55-3.2,3.41-3.05,1.49,2.97Zm-10.69,5.46l-.24.02.12-.1.12.08Zm7.84-11.13l-3.38,3.03-3.08-6.34,2.88-3.83,3.58,7.15Zm-9.81-10.2l2.51-4.35,2.25,4.48-2.85,3.8-1.91-3.93Zm1.37,9.52l2.79,5.74-2.57,2.3-4.15-2.8,3.93-5.24Zm-9.66,12.86l3.96-5.28,3.66,2.47-2.57,2.3-5.06.52Zm3.53,4.78l2.78-2.49,7.73-.79,2.19,1.48-.63,2.52-12.08-.72Zm9.46,11.25l-.27,1.07-2.45-.79,2.71-.28Z"/><rect class="cls-1" x="45.99" y="85.14" width="8.01" height="8.46"/><polygon class="cls-1" points="53.65 18.53 49.82 16.34 45.85 18.26 46.74 13.95 43.69 10.77 48.07 10.28 50.15 6.39 51.97 10.41 56.31 11.19 53.05 14.16 53.65 18.53"/></svg>