<?xml version="1.0" encoding="UTF-8"?><svg id="Layer_1" xmlns="http://www.w3.org/2000/svg" viewBox="0 0 100 100"><defs><style>.cls-1{fill:#fff;}</style></defs><polygon class="cls-1" points="53.82 13.72 55.15 16.41 58.11 16.84 55.97 18.94 56.47 21.89 53.82 20.49 51.17 21.89 51.67 18.94 49.53 16.84 52.49 16.41 53.82 13.72"/><path class="cls-1" d="m38.53,70.18l-3.54-1.86-3.54,1.86.68-3.94-2.86-2.79,3.96-.58,1.77-3.59,1.77,3.59,3.96.58-2.87,2.79.68,3.94Zm-6.4-5.8l1.43,1.39-.34,1.97,1.77-.93,1.76.93-.34-1.97,1.43-1.39-1.97-.29-.88-1.79-.88,1.79-1.97.29Z"/><path class="cls-1" d="m59.66,37.49l-3.54-1.86-3.54,1.86.68-3.94-2.86-2.79,3.96-.58,1.77-3.59,1.77,3.59,3.96.58-2.87,2.79.68,3.94Zm-6.4-5.8l1.43,1.39-.34,1.97,1.77-.93,1.76.93-.34-1.97,1.43-1.39-1.97-.29-.88-1.79-.88,1.79-1.97.29Z"/><path class="cls-1" d="m69.56,76.18l-3.54-1.86-3.54,1.86.68-3.94-2.86-2.79,3.96-.58,1.77-3.59,1.77,3.59,3.96.58-2.87,2.79.68,3.94Zm-6.4-5.8l1.43,1.39-.34,1.97,1.77-.93,1.76.93-.34-1.97,1.43-1.39-1.97-.29-.88-1.79-.88,1.79-1.97.29Z"/><polygon class="cls-1" points="40.13 37.47 41.45 40.16 44.42 40.59 42.27 42.68 42.78 45.64 40.13 44.24 37.47 45.64 37.98 42.68 35.83 40.59 38.8 40.16 40.13 37.47"/><polygon class="cls-1" points="55.74 48.6 57.07 51.29 60.04 51.72 57.89 53.81 58.4 56.77 55.74 55.37 53.09 56.77 53.6 53.81 51.45 51.72 54.42 51.29 55.74 48.6"/><path class="cls-1" d="m42.11,83.29c-3.04,0-6.18-.2-9.83-.78-4.35-.68-7.7-1.72-9.9-4.56-2.28-2.94-1.63-6.73-.58-10.38,2.3-8.03,5.24-16.56,9.01-26.08,1.4-3.54,2.97-7.06,4.49-10.48,1.88-4.22,3.82-8.58,5.44-12.98.05-.15,1.35-3.61,4.55-8.55,3.06-4.72,4.5-5.4,5.41-5.47.07,0,.14,0,.21,0,3.03,0,5.5,4.58,7.51,9.1,10.46,23.4,12.33,29.94,17.91,49.38l1.14,3.98c1.51,5.25,2.69,9.34.45,12.53-1.86,2.65-4.64,2.76-12.05,3.04-2.68.1-6.02.23-10.19.5-1.3.09-2.54.18-3.74.27-3.49.26-6.6.49-9.82.49ZM50.9,5.35s-.08,0-.11,0c-.39.03-1.59.56-4.38,4.86-3.12,4.81-4.41,8.26-4.42,8.29-1.64,4.44-3.59,8.82-5.47,13.06-1.51,3.4-3.08,6.91-4.46,10.42-3.75,9.48-6.68,17.97-8.97,25.96h0c-.88,3.09-1.66,6.59.36,9.19,1.67,2.16,4.21,3.29,9.05,4.05,7.38,1.16,12.66.77,19.35.28,1.2-.09,2.44-.18,3.75-.27,4.18-.28,7.54-.4,10.23-.51,7.13-.27,9.53-.36,11.01-2.47,1.87-2.67.83-6.29-.62-11.31l-1.16-4.05c-5.56-19.37-7.43-25.89-17.85-49.2-1.02-2.29-3.71-8.31-6.29-8.31Z"/><rect class="cls-1" x="47.22" y="81.89" width="6.93" height="14.1"/></svg>