<?xml version="1.0" encoding="UTF-8"?><svg id="Layer_1" xmlns="http://www.w3.org/2000/svg" viewBox="0 0 100 100"><path d="m47.85,25.14l-16.12,55.12c-.42,1.43.65,2.86,2.15,2.86h32.24c1.49,0,2.57-1.43,2.15-2.86l-16.12-55.12c-.63-2.15-3.67-2.15-4.29,0Z"/><rect x="45.94" y="85.98" width="8.11" height="8.11"/><path d="m54.27,20.11l-4.48-2.55-4.64,2.25,1.04-5.05-3.57-3.72,5.13-.57,2.44-4.55,2.13,4.7,5.08.91-3.81,3.47.7,5.11Zm-4.44-3.68l3.18,1.81-.5-3.62,2.7-2.46-3.6-.65-1.51-3.33-1.73,3.22-3.64.4,2.53,2.64-.74,3.58,3.29-1.59Z"/></svg>